<svg width="32" height="32" viewBox="0 0 32 32" fill="none" xmlns="http://www.w3.org/2000/svg">
<path d="M15.9999 4.70576C17.2993 4.70576 18.3528 3.65231 18.3528 2.35282C18.3528 1.05333 17.2993 -0.000114441 15.9999 -0.000114441C14.7004 -0.000114441 13.6469 1.05333 13.6469 2.35282C13.6469 3.65231 14.7004 4.70576 15.9999 4.70576Z" fill="url(#paint0_linear_28226_584)"/>
<path d="M15.9999 4.70576C17.2994 4.70576 18.3528 3.65233 18.3528 2.35282H13.6469C13.6469 3.65233 14.7003 4.70576 15.9999 4.70576Z" fill="url(#paint1_linear_28226_584)"/>
<path d="M27.6196 31.7649C26.7462 30.4852 25.6411 29.3801 24.3614 28.5067C24.0482 28.293 24.0482 27.8333 24.3614 27.6196C25.6411 26.7462 26.7462 25.6411 27.6196 24.3614C27.8333 24.0482 28.293 24.0482 28.5067 24.3614C29.3801 25.6411 30.4852 26.7462 31.7649 27.6196C32.0781 27.8333 32.0781 28.293 31.7649 28.5067C30.4852 29.3801 29.3801 30.4852 28.5067 31.7649C28.293 32.0781 27.8333 32.0781 27.6196 31.7649Z" fill="url(#paint2_linear_28226_584)"/>
<path d="M27.6196 31.7649C26.7462 30.4852 25.6411 29.3801 24.3614 28.5067C24.0482 28.293 24.0482 27.8333 24.3614 27.6196C25.6411 26.7462 26.7462 25.6411 27.6196 24.3614C27.8333 24.0482 28.293 24.0482 28.5067 24.3614C29.3801 25.6411 30.4852 26.7462 31.7649 27.6196C32.0781 27.8333 32.0781 28.293 31.7649 28.5067C30.4852 29.3801 29.3801 30.4852 28.5067 31.7649C28.293 32.0781 27.8333 32.0781 27.6196 31.7649Z" fill="url(#paint3_linear_28226_584)"/>
<path d="M15.9999 3.33879C8.08533 3.33879 1.66934 9.75478 1.66934 17.6693C1.66934 25.5838 8.08533 31.9998 15.9999 31.9998V3.33879Z" fill="url(#paint4_linear_28226_584)"/>
<path d="M15.9999 21.3164V12.1892L9.3502 5.53957L4.78664 10.1031L15.9999 21.3164Z" fill="url(#paint5_linear_28226_584)"/>
<path d="M15.9999 19.9734V31.9998C8.87001 31.9998 2.95574 26.7925 1.85368 19.9734H15.9999Z" fill="url(#paint6_linear_28226_584)"/>
<path d="M15.9999 3.33879C23.9144 3.33879 30.3304 9.75478 30.3304 17.6693C30.3304 25.5838 23.9144 31.9998 15.9999 31.9998V3.33879Z" fill="url(#paint7_linear_28226_584)"/>
<path d="M8.59833 10.2678C10.7587 9.4804 13.2914 9.02713 15.9999 9.02713V3.33879C12.8602 3.33879 10.1119 6.11513 8.59833 10.2678Z" fill="url(#paint8_linear_28226_584)"/>
<path d="M8.59833 25.0708C10.1119 29.2235 12.8602 31.9998 15.9999 31.9998V26.3115C13.2915 26.3115 10.7587 25.8582 8.59833 25.0708Z" fill="url(#paint9_linear_28226_584)"/>
<path d="M8.59833 25.0708C10.1119 29.2235 12.8602 31.9998 15.9999 31.9998V26.3115C13.2915 26.3115 10.7587 25.8582 8.59833 25.0708Z" fill="url(#paint10_linear_28226_584)"/>
<path d="M23.4014 10.2678C21.8878 6.11513 19.1395 3.33879 15.9999 3.33879V9.02707C18.7083 9.02707 21.241 9.4804 23.4014 10.2678Z" fill="url(#paint11_linear_28226_584)"/>
<path d="M23.4014 25.0708C21.241 25.8582 18.7083 26.3115 15.9999 26.3115V31.9998C19.1395 31.9998 21.8878 29.2235 23.4014 25.0708Z" fill="url(#paint12_linear_28226_584)"/>
<path d="M8.59833 10.2678C4.44568 11.7813 1.66934 14.5297 1.66934 17.6693H7.35761C7.35761 14.9609 7.81095 12.4282 8.59833 10.2678Z" fill="url(#paint13_linear_28226_584)"/>
<path d="M23.4014 10.2678C24.1888 12.4282 24.6421 14.9609 24.6421 17.6693H30.3304C30.3304 14.5297 27.554 11.7813 23.4014 10.2678Z" fill="url(#paint14_linear_28226_584)"/>
<path d="M15.9999 9.02707C13.2914 9.02707 10.7587 9.4804 8.59833 10.2677C7.81094 12.4281 7.35761 14.9608 7.35761 17.6692H15.9999V9.02707Z" fill="url(#paint15_linear_28226_584)"/>
<path d="M13.0244 9.21379C11.4362 9.41615 9.94483 9.77699 8.59833 10.2677C8.27337 11.1594 8.00633 12.1153 7.80354 13.12L12.3527 17.6692H15.9998V12.1892L13.0244 9.21379Z" fill="url(#paint16_linear_28226_584)"/>
<path d="M15.9999 9.02707V17.6693H24.6421C24.6421 14.9609 24.1888 12.4282 23.4014 10.2678C21.241 9.4804 18.7083 9.02707 15.9999 9.02707Z" fill="url(#paint17_linear_28226_584)"/>
<path d="M8.59833 25.0708C7.81095 22.9105 7.35761 20.3778 7.35761 17.6693H1.66934C1.66934 20.8089 4.44568 23.5573 8.59833 25.0708Z" fill="url(#paint18_linear_28226_584)"/>
<path d="M23.4014 25.0708C27.554 23.5573 30.3304 20.8089 30.3304 17.6693H24.6421C24.6421 20.3777 24.1888 22.9105 23.4014 25.0708Z" fill="url(#paint19_linear_28226_584)"/>
<path d="M7.35761 17.6693C7.35761 20.3777 7.81094 22.9105 8.59833 25.0708C10.7587 25.8582 13.2914 26.3116 15.9999 26.3116V17.6693H7.35761Z" fill="url(#paint20_linear_28226_584)"/>
<path d="M15.9999 26.3116C18.7083 26.3116 21.241 25.8582 23.4014 25.0708C24.1888 22.9105 24.6421 20.3778 24.6421 17.6693H15.9999V26.3116Z" fill="url(#paint21_linear_28226_584)"/>
<path d="M30.146 19.9734C29.044 26.7925 23.1297 31.9998 15.9999 31.9998V19.9734H30.146Z" fill="url(#paint22_linear_28226_584)"/>
<path d="M8.59833 10.2678C9.9449 9.777 11.4362 9.41615 13.0244 9.21386L10.4688 6.65826C9.73119 7.67824 9.09753 8.89806 8.59833 10.2678Z" fill="url(#paint23_linear_28226_584)"/>
<path d="M7.80354 13.1201C8.00633 12.1154 8.27331 11.1595 8.59833 10.2678C7.69687 10.5963 6.86035 10.9831 6.10296 11.4195L7.80354 13.1201Z" fill="url(#paint24_linear_28226_584)"/>
<path d="M4.78664 10.1031C3.82509 8.6943 2.60853 7.47771 1.1997 6.51614C0.854913 6.28085 0.854913 5.77481 1.1997 5.53958C2.60856 4.57804 3.82512 3.36145 4.78664 1.95257C5.02193 1.60779 5.52797 1.60779 5.7632 1.95257C6.72475 3.36142 7.94131 4.578 9.35014 5.53958C9.69493 5.77487 9.69493 6.28091 9.35014 6.51614C7.94128 7.47768 6.72472 8.69427 5.7632 10.1031C5.52797 10.4479 5.02193 10.4479 4.78664 10.1031Z" fill="url(#paint25_linear_28226_584)"/>
<path d="M29.0743 5.10162C28.4909 4.24687 27.7528 3.50878 26.8981 2.92543C26.6889 2.78269 26.6889 2.47568 26.8981 2.33293C27.7528 1.74959 28.4909 1.0115 29.0743 0.156749C29.217 -0.0524429 29.524 -0.0524429 29.6668 0.156749C30.2501 1.0115 30.9882 1.74959 31.843 2.33293C32.0522 2.47568 32.0522 2.78269 31.843 2.92543C30.9882 3.50878 30.2501 4.24687 29.6668 5.10162C29.524 5.31081 29.217 5.31081 29.0743 5.10162Z" fill="url(#paint26_linear_28226_584)"/>
<path d="M2.33293 31.843C1.74959 30.9882 1.0115 30.2501 0.156749 29.6668C-0.0524429 29.524 -0.0524429 29.217 0.156749 29.0743C1.01148 28.4909 1.74957 27.7528 2.33293 26.8981C2.47568 26.6889 2.78269 26.6889 2.92543 26.8981C3.50878 27.7528 4.24687 28.4909 5.10162 29.0743C5.31081 29.217 5.31081 29.524 5.10162 29.6668C4.24688 30.2501 3.5088 30.9882 2.92543 31.843C2.78269 32.0521 2.47568 32.0521 2.33293 31.843Z" fill="url(#paint27_linear_28226_584)"/>
<path d="M14.9835 12.981L12.2148 15.7496L14.1345 17.6693H15.9999V13.9974L14.9835 12.981Z" fill="url(#paint28_linear_28226_584)"/>
<path d="M15.9999 13.9974V17.6693H19.6718L15.9999 13.9974Z" fill="url(#paint29_linear_28226_584)"/>
<path d="M15.9999 19.5347V17.6693H14.1344L15.9999 19.5347Z" fill="url(#paint30_linear_28226_584)"/>
<path d="M19.6718 17.6693H15.9999V19.5347L21.9871 25.522C22.4736 25.3868 22.9462 25.2367 23.4014 25.0708C23.7286 24.1731 23.9971 23.2102 24.2004 22.1979L19.6718 17.6693Z" fill="url(#paint31_linear_28226_584)"/>
<path d="M12.2148 15.7496C11.6314 14.8949 10.8933 14.1568 10.0386 13.5734C9.82939 13.4307 9.82939 13.1237 10.0386 12.9809C10.8933 12.3976 11.6314 11.6595 12.2148 10.8048C12.3575 10.5956 12.6645 10.5956 12.8073 10.8048C13.3906 11.6595 14.1287 12.3976 14.9834 12.9809C15.1926 13.1237 15.1926 13.4307 14.9834 13.5734C14.1287 14.1568 13.3906 14.8949 12.8073 15.7496C12.6645 15.9588 12.3575 15.9588 12.2148 15.7496Z" fill="url(#paint32_linear_28226_584)"/>
<defs>
<linearGradient id="paint0_linear_28226_584" x1="15.9999" y1="1.29312" x2="15.9999" y2="4.13039" gradientUnits="userSpaceOnUse">
<stop stop-color="#EAF6FF"/>
<stop offset="1" stop-color="#B3DAFE"/>
</linearGradient>
<linearGradient id="paint1_linear_28226_584" x1="15.9999" y1="2.8657" x2="15.9999" y2="6.33819" gradientUnits="userSpaceOnUse">
<stop stop-color="#8AC9FE" stop-opacity="0"/>
<stop offset="0.066" stop-color="#85C2F3" stop-opacity="0.066"/>
<stop offset="0.369" stop-color="#6FA2C3" stop-opacity="0.37"/>
<stop offset="0.637" stop-color="#608CA0" stop-opacity="0.637"/>
<stop offset="0.857" stop-color="#567E8B" stop-opacity="0.857"/>
<stop offset="1" stop-color="#537983"/>
</linearGradient>
<linearGradient id="paint2_linear_28226_584" x1="26.5736" y1="26.5736" x2="29.1415" y2="29.1415" gradientUnits="userSpaceOnUse">
<stop stop-color="#EAF6FF"/>
<stop offset="1" stop-color="#B3DAFE"/>
</linearGradient>
<linearGradient id="paint3_linear_28226_584" x1="29.2271" y1="29.2271" x2="25.9602" y2="25.9602" gradientUnits="userSpaceOnUse">
<stop stop-color="#8AC9FE" stop-opacity="0"/>
<stop offset="0.066" stop-color="#85C2F3" stop-opacity="0.066"/>
<stop offset="0.369" stop-color="#6FA2C3" stop-opacity="0.37"/>
<stop offset="0.637" stop-color="#608CA0" stop-opacity="0.637"/>
<stop offset="0.857" stop-color="#567E8B" stop-opacity="0.857"/>
<stop offset="1" stop-color="#537983"/>
</linearGradient>
<linearGradient id="paint4_linear_28226_584" x1="4.57155" y1="9.34154" x2="20.8128" y2="25.2456" gradientUnits="userSpaceOnUse">
<stop stop-color="#69D774"/>
<stop offset="1" stop-color="#2E8E59"/>
</linearGradient>
<linearGradient id="paint5_linear_28226_584" x1="14.6195" y1="15.3724" x2="4.69961" y2="5.45255" gradientUnits="userSpaceOnUse">
<stop stop-color="#017B4E" stop-opacity="0"/>
<stop offset="0.853" stop-color="#026B43" stop-opacity="0.853"/>
<stop offset="1" stop-color="#026841"/>
</linearGradient>
<linearGradient id="paint6_linear_28226_584" x1="8.92674" y1="23.3453" x2="8.92674" y2="30.2814" gradientUnits="userSpaceOnUse">
<stop stop-color="#017B4E" stop-opacity="0"/>
<stop offset="0.853" stop-color="#026B43" stop-opacity="0.853"/>
<stop offset="1" stop-color="#026841"/>
</linearGradient>
<linearGradient id="paint7_linear_28226_584" x1="13.3863" y1="12.6102" x2="27.2673" y2="25.5358" gradientUnits="userSpaceOnUse">
<stop stop-color="#F7657E"/>
<stop offset="1" stop-color="#FF1D25"/>
</linearGradient>
<linearGradient id="paint8_linear_28226_584" x1="11.3776" y1="5.88179" x2="15.5548" y2="10.059" gradientUnits="userSpaceOnUse">
<stop stop-color="#F5F173"/>
<stop offset="1" stop-color="#FBB03B"/>
</linearGradient>
<linearGradient id="paint9_linear_28226_584" x1="10.7228" y1="25.0819" x2="18.449" y2="32.808" gradientUnits="userSpaceOnUse">
<stop stop-color="#F5F173"/>
<stop offset="1" stop-color="#FBB03B"/>
</linearGradient>
<linearGradient id="paint10_linear_28226_584" x1="12.4267" y1="26.6044" x2="13.6256" y2="35.1841" gradientUnits="userSpaceOnUse">
<stop stop-color="#FF1D25" stop-opacity="0"/>
<stop offset="1" stop-color="#7E0034"/>
</linearGradient>
<linearGradient id="paint11_linear_28226_584" x1="16.3034" y1="5.2832" x2="22.7455" y2="11.7253" gradientUnits="userSpaceOnUse">
<stop stop-color="#FCA52C"/>
<stop offset="1" stop-color="#F15A24"/>
</linearGradient>
<linearGradient id="paint12_linear_28226_584" x1="15.6486" y1="24.4834" x2="21.4516" y2="30.2863" gradientUnits="userSpaceOnUse">
<stop stop-color="#FCA52C"/>
<stop offset="1" stop-color="#F15A24"/>
</linearGradient>
<linearGradient id="paint13_linear_28226_584" x1="4.15611" y1="12.9908" x2="10.869" y2="19.7037" gradientUnits="userSpaceOnUse">
<stop stop-color="#BB9AE2"/>
<stop offset="1" stop-color="#662D91"/>
</linearGradient>
<linearGradient id="paint14_linear_28226_584" x1="23.862" y1="12.8418" x2="28.9487" y2="17.9284" gradientUnits="userSpaceOnUse">
<stop stop-color="#F5F173"/>
<stop offset="1" stop-color="#FBB03B"/>
</linearGradient>
<linearGradient id="paint15_linear_28226_584" x1="8.52548" y1="10.1949" x2="16.5311" y2="18.2005" gradientUnits="userSpaceOnUse">
<stop stop-color="#89E2FF"/>
<stop offset="1" stop-color="#3FA9F5"/>
</linearGradient>
<linearGradient id="paint16_linear_28226_584" x1="14.6195" y1="15.3724" x2="4.69961" y2="5.45255" gradientUnits="userSpaceOnUse">
<stop stop-color="#2740B0" stop-opacity="0"/>
<stop offset="0.288" stop-color="#243CA6" stop-opacity="0.288"/>
<stop offset="0.774" stop-color="#1D308C" stop-opacity="0.774"/>
<stop offset="1" stop-color="#192A7D"/>
</linearGradient>
<linearGradient id="paint17_linear_28226_584" x1="15.3453" y1="9.61317" x2="25.8908" y2="20.1588" gradientUnits="userSpaceOnUse">
<stop stop-color="#69D774"/>
<stop offset="1" stop-color="#2E8E59"/>
</linearGradient>
<linearGradient id="paint18_linear_28226_584" x1="3.58564" y1="17.9447" x2="11.1139" y2="25.473" gradientUnits="userSpaceOnUse">
<stop stop-color="#FCA52C"/>
<stop offset="1" stop-color="#F15A24"/>
</linearGradient>
<linearGradient id="paint19_linear_28226_584" x1="24.4155" y1="18.9197" x2="27.7822" y2="22.2865" gradientUnits="userSpaceOnUse">
<stop stop-color="#89E2FF"/>
<stop offset="1" stop-color="#3FA9F5"/>
</linearGradient>
<linearGradient id="paint20_linear_28226_584" x1="9.65778" y1="18.7288" x2="16.9386" y2="26.0096" gradientUnits="userSpaceOnUse">
<stop stop-color="#F7657E"/>
<stop offset="1" stop-color="#FF1D25"/>
</linearGradient>
<linearGradient id="paint21_linear_28226_584" x1="16.1966" y1="17.866" x2="24.266" y2="25.9355" gradientUnits="userSpaceOnUse">
<stop stop-color="#BB9AE2"/>
<stop offset="1" stop-color="#662D91"/>
</linearGradient>
<linearGradient id="paint22_linear_28226_584" x1="23.039" y1="25.861" x2="24.65" y2="31.8181" gradientUnits="userSpaceOnUse">
<stop stop-color="#FF1D25" stop-opacity="0"/>
<stop offset="1" stop-color="#7E0034"/>
</linearGradient>
<linearGradient id="paint23_linear_28226_584" x1="15.5312" y1="14.4607" x2="5.61141" y2="4.5408" gradientUnits="userSpaceOnUse">
<stop stop-color="#DB841D" stop-opacity="0"/>
<stop offset="1" stop-color="#F7931E"/>
</linearGradient>
<linearGradient id="paint24_linear_28226_584" x1="13.2494" y1="16.7424" x2="3.32963" y2="6.82258" gradientUnits="userSpaceOnUse">
<stop stop-color="#662D91" stop-opacity="0"/>
<stop offset="0.238" stop-color="#592989" stop-opacity="0.238"/>
<stop offset="0.672" stop-color="#381E76" stop-opacity="0.672"/>
<stop offset="1" stop-color="#1B1464"/>
</linearGradient>
<linearGradient id="paint25_linear_28226_584" x1="3.63508" y1="4.38802" x2="6.46212" y2="7.21506" gradientUnits="userSpaceOnUse">
<stop stop-color="#EAF6FF"/>
<stop offset="1" stop-color="#B3DAFE"/>
</linearGradient>
<linearGradient id="paint26_linear_28226_584" x1="28.3757" y1="1.63433" x2="30.0907" y2="3.3494" gradientUnits="userSpaceOnUse">
<stop stop-color="#EAF6FF"/>
<stop offset="1" stop-color="#B3DAFE"/>
</linearGradient>
<linearGradient id="paint27_linear_28226_584" x1="1.63433" y1="28.3757" x2="3.3494" y2="30.0907" gradientUnits="userSpaceOnUse">
<stop stop-color="#EAF6FF"/>
<stop offset="1" stop-color="#B3DAFE"/>
</linearGradient>
<linearGradient id="paint28_linear_28226_584" x1="16.7461" y1="17.5124" x2="11.4963" y2="12.2625" gradientUnits="userSpaceOnUse">
<stop stop-color="#2740B0" stop-opacity="0"/>
<stop offset="0.288" stop-color="#243CA6" stop-opacity="0.288"/>
<stop offset="0.774" stop-color="#1D308C" stop-opacity="0.774"/>
<stop offset="1" stop-color="#192A7D"/>
</linearGradient>
<linearGradient id="paint29_linear_28226_584" x1="20.5537" y1="20.3872" x2="11.1529" y2="10.9864" gradientUnits="userSpaceOnUse">
<stop stop-color="#017B4E" stop-opacity="0"/>
<stop offset="0.853" stop-color="#026B43" stop-opacity="0.853"/>
<stop offset="1" stop-color="#026841"/>
</linearGradient>
<linearGradient id="paint30_linear_28226_584" x1="19.1694" y1="21.7715" x2="9.76858" y2="12.3708" gradientUnits="userSpaceOnUse">
<stop stop-color="#FF1D25" stop-opacity="0"/>
<stop offset="1" stop-color="#7E0034"/>
</linearGradient>
<linearGradient id="paint31_linear_28226_584" x1="20.0873" y1="20.8536" x2="10.6865" y2="11.4528" gradientUnits="userSpaceOnUse">
<stop stop-color="#662D91" stop-opacity="0"/>
<stop offset="0.238" stop-color="#592989" stop-opacity="0.238"/>
<stop offset="0.672" stop-color="#381E76" stop-opacity="0.672"/>
<stop offset="1" stop-color="#1B1464"/>
</linearGradient>
<linearGradient id="paint32_linear_28226_584" x1="11.5162" y1="12.2823" x2="13.2313" y2="13.9975" gradientUnits="userSpaceOnUse">
<stop stop-color="#EAF6FF"/>
<stop offset="1" stop-color="#B3DAFE"/>
</linearGradient>
</defs>
</svg>
