<svg width="30" height="29" viewBox="0 0 30 29" fill="none" xmlns="http://www.w3.org/2000/svg">
<path d="M15.4145 16.5301C15.4145 17.3419 14.7563 18.0001 13.9445 18.0001C13.1326 18.0001 12.4745 17.3419 12.4745 16.5301C12.4745 15.7182 13.1326 15.0601 13.9445 15.0601C14.7563 15.0601 15.4145 15.7182 15.4145 16.5301Z" fill="#212121"/>
<path d="M19.3595 1.66202C18.5093 0.760293 17.1028 0.722576 16.2027 1.57125C15.3129 2.41023 15.2644 3.7909 16.0788 4.69215C15.5254 5.63428 15.1727 6.70848 15.0793 7.85604L15.067 7.84301L1.80003 23.394C1.3827 23.886 1.11486 24.4872 1.02813 25.1265C0.941397 25.7658 1.03939 26.4166 1.31055 27.002C1.58171 27.5874 2.0147 28.083 2.55841 28.4303C3.10213 28.7776 3.73386 28.9621 4.37903 28.962C5.11214 28.9621 5.825 28.7215 6.40803 28.277L22.707 15.943L22.7022 15.9379C23.8558 15.911 24.9447 15.6225 25.912 15.1295L26.0518 15.2779C26.9015 16.1792 28.3071 16.2175 29.2073 15.3702C30.1128 14.5279 30.1462 13.1102 29.2996 12.2122L29.1059 12.0066C29.6728 10.9538 29.9944 9.74947 29.9944 8.47C29.9944 4.34443 26.65 0.999996 22.5244 0.999996C21.4033 0.999996 20.3398 1.247 19.3854 1.68956L19.3595 1.66202ZM15.142 10.837L15.6335 11.3587C16.3323 13.0236 17.6168 14.3819 19.2292 15.1757L19.723 15.7L5.19903 26.689C4.92788 26.8972 4.58897 26.9971 4.24823 26.9693C3.90749 26.9415 3.5893 26.7879 3.35554 26.5384C3.12179 26.2889 2.98919 25.9614 2.98355 25.6196C2.97791 25.2778 3.09963 24.9461 3.32503 24.689L15.142 10.837ZM16.8887 2.29884C17.3886 1.82752 18.1621 1.84975 18.6319 2.34803L28.5718 12.8979C29.0446 13.3994 29.0185 14.1808 28.5255 14.6386L28.5227 14.6412C28.0228 15.1125 27.2494 15.0903 26.7796 14.5922L16.8396 4.04215C16.3683 3.54227 16.3904 2.76865 16.8887 2.29884Z" fill="#212121"/>
</svg>
